<?xml version="1.0" encoding="utf-8"?>
<!-- Generator: Adobe Illustrator 18.1.0, SVG Export Plug-In . SVG Version: 6.00 Build 0)  -->
<svg version="1.1" id="Layer_1" xmlns="http://www.w3.org/2000/svg" xmlns:xlink="http://www.w3.org/1999/xlink" x="0px" y="0px"
	 viewBox="0 0 500 500" enable-background="new 0 0 500 500" xml:space="preserve">
<g>
	<rect x="0" y="462.7" fill="#010101" width="96.1" height="37.3"/>
	<rect x="0" y="396.6" fill="#010101" width="96.1" height="37.3"/>
	<rect x="0" y="330.6" fill="#010101" width="96.1" height="37.3"/>
	<rect x="0" y="264.3" fill="#010101" width="96.1" height="37.3"/>
	<rect x="0" y="198.3" fill="#010101" width="96.1" height="37.3"/>
	<rect x="0" y="132.2" fill="#010101" width="96.1" height="37.3"/>
	<rect x="134.6" y="462.7" fill="#010101" width="96.1" height="37.3"/>
	<rect x="134.6" y="396.6" fill="#010101" width="96.1" height="37.3"/>
	<rect x="134.6" y="330.6" fill="#010101" width="96.1" height="37.3"/>
	<rect x="134.6" y="264.3" fill="#010101" width="96.1" height="37.3"/>
	<rect x="134.6" y="198.3" fill="#010101" width="96.1" height="37.3"/>
	<rect x="134.6" y="132.2" fill="#010101" width="96.1" height="37.3"/>
	<rect x="134.6" y="66.1" fill="#010101" width="96.1" height="37.3"/>
	<rect x="134.6" y="0" fill="#010101" width="96.1" height="37.3"/>
	<rect x="269.3" y="462.7" fill="#010101" width="96.1" height="37.3"/>
	<rect x="269.3" y="396.6" fill="#010101" width="96.1" height="37.3"/>
	<rect x="269.3" y="330.6" fill="#010101" width="96.1" height="37.3"/>
	<rect x="269.3" y="264.3" fill="#010101" width="96.1" height="37.3"/>
	<rect x="269.3" y="198.3" fill="#010101" width="96.1" height="37.3"/>
	<rect x="403.9" y="462.7" fill="#010101" width="96.1" height="37.3"/>
	<rect x="403.9" y="396.6" fill="#010101" width="96.1" height="37.3"/>
	<rect x="403.9" y="330.6" fill="#010101" width="96.1" height="37.3"/>
	<rect x="403.9" y="264.3" fill="#010101" width="96.1" height="37.3"/>
</g>
</svg>
