<?xml version="1.0" encoding="utf-8"?>
<!-- Svg Vector Icons : http://www.onlinewebfonts.com/icon -->
<!DOCTYPE svg PUBLIC "-//W3C//DTD SVG 1.1//EN" "http://www.w3.org/Graphics/SVG/1.1/DTD/svg11.dtd">
<svg version="1.1" xmlns="http://www.w3.org/2000/svg" xmlns:xlink="http://www.w3.org/1999/xlink" x="0px" y="0px" viewBox="0 0 1000 1000" enable-background="new 0 0 1000 1000" xml:space="preserve">
<metadata> Svg Vector Icons : http://www.onlinewebfonts.com/icon </metadata>
<g><g transform="translate(0.000000,512.000000) scale(0.100000,-0.100000)"><path d="M1474.2,4992.7c-42.2-15.3-109.2-61.3-147.6-101.6c-139.9-149.5-130.3,74.7-130.3-3370.6v-3090.9h3803.7h3803.7V591.1c0,1483.1-5.8,2184.5-21.1,2236.2c-17.3,65.2-168.6,226.1-1038.6,1099.9C7056.2,4617.1,6699.7,4960.1,6648,4985c-72.8,34.5-172.5,36.4-2586.9,34.5C1945.6,5019.5,1539.4,5015.7,1474.2,4992.7z M7437.5,3655.2c488.6-486.7,887.2-896.8,887.2-910.2c0-11.5-17.3-40.2-38.3-61.3c-38.3-38.3-59.4-38.3-944.7-34.5l-904.5,5.7l-5.7,904.5c-3.8,885.3-3.8,906.4,34.5,944.7c21.1,21.1,49.8,38.3,61.3,38.3C6540.7,4542.4,6950.8,4143.8,7437.5,3655.2z M3838.8,2097.3c115-95.8,55.6-264.4-99.6-289.4c-44.1-5.7-97.7-32.6-122.6-55.6c-42.2-42.1-44.1-53.6-44.1-415.8c0-507.8-28.7-641.9-174.4-808.6l-59.4-67.1l59.4-74.7c32.6-42.2,82.4-126.5,111.1-187.8c51.7-109.2,51.7-120.7,59.4-532.7c1.9-231.9,9.6-440.7,15.3-463.7c9.6-47.9,97.7-101.6,166.7-101.6c69,0,147.6-88.1,147.6-162.9c0-78.6-61.3-157.1-134.1-172.5c-80.5-17.2-251,36.4-346.8,111.1c-46,34.5-103.5,103.5-130.3,157.1c-47.9,92-49.8,107.3-59.4,555.7c-9.6,438.8-11.5,463.7-53.7,530.8c-55.6,90.1-147.5,145.6-262.5,162.9c-122.6,15.3-189.7,74.7-189.7,164.8c0,88.2,67.1,162.9,159,176.3c38.3,7.7,88.1,15.3,111.1,21.1c57.5,11.5,176.3,116.9,203.1,178.2c13.4,30.7,24.9,237.6,32.6,509.7c9.6,427.3,13.4,465.6,51.7,538.5C3398.1,2093.5,3699,2214.2,3838.8,2097.3z M6324.2,2093.5c99.6-51.7,187.8-147.6,235.7-252.9c36.4-78.6,40.2-126.5,40.2-488.6c0-220.4,9.6-435,19.2-473.3c36.4-128.4,166.7-245.3,274-245.3c126.5,0,224.2-84.3,224.2-191.6c0-70.9-93.9-145.6-201.2-159c-120.7-17.3-222.3-84.3-270.2-180.1c-32.6-63.2-38.3-132.2-46-532.7c-9.6-496.3-11.5-504-126.5-640c-74.7-90.1-226.1-159.1-348.8-162.9c-90.1-1.9-109.2,3.8-149.5,51.7c-97.7,113.1-24.9,262.5,139.9,287.4c141.8,23,147.5,46,159,578.7c9.6,438.8,11.5,463.7,55.6,546.1c24.9,46,70.9,116.9,103.5,157.1l57.5,70.9l-63.2,72.8c-134.1,151.4-141.8,193.5-153.3,710.9l-9.6,467.6l-49.8,42.1c-28.7,24.9-86.2,49.8-128.4,57.5c-153.3,23-206.9,176.3-97.7,283.6c53.7,55.6,65.1,57.5,159,47.9C6205.4,2135.6,6283.9,2114.5,6324.2,2093.5z M5019.2,1277.1c130.3-55.6,184-241.4,107.3-367.9c-70.9-115-243.4-151.4-352.6-74.7c-155.2,109.2-139.9,354.5,26.8,436.9C4881.3,1309.7,4934.9,1311.6,5019.2,1277.1z M5030.7,60.3l55.6-55.6v-310.4v-310.4l-55.6-55.6c-76.7-74.7-157.1-74.7-233.8,1.9l-57.5,57.5l5.8,318.1l5.7,318.1l53.7,46C4879.4,133.2,4959.8,129.3,5030.7,60.3z" fill="#c7737a"/><path d="M1196.4-3197.2c0-860.4,7.7-1301.1,21.1-1337.5c26.8-72.8,107.3-153.3,199.3-203.1l76.7-42.1h3506.7h3506.6l76.7,42.1c92,49.8,172.5,130.3,199.3,203.1c13.4,36.4,21.1,477.1,21.1,1337.5v1282H5000.1H1196.4V-3197.2z M3150.9-3057.3c0-452.2-7.7-710.9-23-768.4c-72.8-289.3-505.9-385.2-921.7-201.2c-49.8,21.1-90.1,49.8-90.1,61.3c0,19.2,90.1,172.5,103.5,172.5c1.9,0,55.6-17.2,115-38.3c243.4-82.4,423.5-67.1,490.6,44.1c36.4,57.5,38.3,101.6,38.3,737.7v674.5h143.7h143.7V-3057.3z M4339-2413.5c122.6-34.5,126.5-42.2,65.2-153.3c-44.1-80.5-59.4-95.8-92-86.2c-176.3,53.7-283.6,49.8-387.1-11.5c-111.1-67.1-145.6-220.4-69-321.9c19.2-26.8,138-103.5,260.6-168.6c256.8-134.1,283.6-155.2,352.6-272.1c65.2-113,69-297,7.7-415.8c-53.7-105.4-178.2-208.9-297-249.1c-178.2-59.4-578.7-5.8-634.3,84.3c-7.7,11.5-1.9,61.3,9.6,109.2c19.2,78.5,28.7,88.1,63.2,76.7c320-93.9,410.1-99.7,530.8-38.3c103.5,53.6,143.7,203.1,84.3,314.3c-28.7,57.5-126.5,126.5-331.5,231.8c-149.5,78.6-275.9,189.7-318.1,275.9c-42.2,90-40.2,287.4,5.7,385.1c55.6,122.6,174.4,214.6,337.3,260.6C3994.1-2373.2,4243.2-2386.7,4339-2413.5z M5764.6-2438.4c277.9-126.5,433.1-421.6,433.1-818.2c0-383.2-149.5-676.4-412-804.8c-84.3-42.2-122.6-47.9-297-47.9c-170.5,0-214.6,5.8-289.3,44.1c-270.2,132.2-417.7,415.8-419.6,801c0,467.6,197.4,779.9,550,870C5446.5-2365.6,5649.7-2386.7,5764.6-2438.4z M7203.7-2992.2l325.7-576.8l5.7,578.7l3.8,576.8h143.7h143.7l-3.8-847l-5.8-848.9l-138-5.7l-136-5.7l-337.3,590.2l-337.2,590.2v-590.2v-590.2l-138,5.7l-139.9,5.7l-5.7,848.9l-3.8,847h147.5l149.5-1.9L7203.7-2992.2z" fill="#c7737a"/><path d="M5366.1-2633.8c-197.4-70.9-298.9-275.9-298.9-613.2c0-206.9,38.3-373.7,111.1-477.1c82.4-118.8,141.8-153.3,277.8-160.9c203.1-13.4,327.7,76.7,408.2,293.2c55.6,147.6,51.7,553.8-7.7,703.3c-51.7,126.5-159,233.8-266.4,262.5C5496.4-2599.4,5458-2601.3,5366.1-2633.8z" fill="#c7737a"/></g></g>
</svg>