<?xml version="1.0" encoding="utf-8"?>
<!-- Svg Vector Icons : http://www.onlinewebfonts.com/icon -->
<!DOCTYPE svg PUBLIC "-//W3C//DTD SVG 1.1//EN" "http://www.w3.org/Graphics/SVG/1.1/DTD/svg11.dtd">
<svg version="1.1" xmlns="http://www.w3.org/2000/svg" xmlns:xlink="http://www.w3.org/1999/xlink" x="55px" y="55px" viewBox="0 0 1000 1000" enable-background="new 0 0 1000 1000" xml:space="preserve">
<metadata> Svg Vector Icons : http://www.onlinewebfonts.com/icon </metadata>
<g><g transform="matrix(1 0 0 -1 0 1920)"><path d="M91.7,930c-5.7,0-10.5,2-14.5,5.9c-3.9,3.9-5.9,8.8-5.9,14.5v939.2c0,5.7,2,10.5,5.9,14.5c3.9,3.9,8.8,5.9,14.5,5.9h510.4v-224.6c0-5.7,2-10.5,5.9-14.5c3.9-3.9,8.8-5.9,14.5-5.9h224.6v-285.8H275.4c-11.2,0-20.8-4-28.8-12c-8-8-12-17.6-12-28.8v-204.2c0-11.2,4-20.8,12-28.8c8-8,17.6-12,28.8-12h571.7V950.4c0-5.7-2-10.5-5.9-14.5c-3.9-3.9-8.8-5.9-14.5-5.9H91.7z M663.3,1705.8c-5.7,0-10.5,2-14.5,5.9c-3.9,3.9-5.9,8.8-5.9,14.5V1910l204.2-204.2H663.3z M324.4,1586.2v63.3l-61.7,35.9l61.7,34.3v62.9l-138.8-80.4v-32.3L324.4,1586.2z M348.9,1586.2l138.8,83.7v32.3l-138.8,80.4v-62.9l61.7-34.3l-61.7-35.9V1586.2z M357.1,1134.2l-40.8,40.8v81.7h40.8V1175h40.8v163.3h40.8V1175l-40.8-40.8H357.1z M479.6,1256.7v40.8l40.8,40.8h81.7v-40.8h-81.7v-40.8H479.6z M683.8,1134.2l-40.8,40.8v122.5l40.8,40.8h40.8l40.8-40.8V1175l-40.8-40.8H683.8z M806.3,1134.2v204.2h81.7v-40.8h-40.8v-163.3H806.3z M683.8,1175h40.8v122.5h-40.8V1175z M887.9,1134.2v163.3h40.8v-163.3H887.9z M520.4,1215.8v40.8h40.8v-40.8H520.4z M479.6,1134.2v40.8h81.7v40.8h40.8V1175l-40.8-40.8H479.6z"  fill="#c7737a"/></g></g>
</svg>