<?xml version="1.0" encoding="utf-8"?>
<!-- Svg Vector Icons : http://www.onlinewebfonts.com/icon -->
<!DOCTYPE svg PUBLIC "-//W3C//DTD SVG 1.1//EN" "http://www.w3.org/Graphics/SVG/1.1/DTD/svg11.dtd">
<svg version="1.1" xmlns="http://www.w3.org/2000/svg" xmlns:xlink="http://www.w3.org/1999/xlink" x="55px" y="55px" viewBox="0 0 1000 1000" enable-background="new 0 0 1000 1000" xml:space="preserve">
<metadata> Svg Vector Icons : http://www.onlinewebfonts.com/icon </metadata>
<g><path d="M373,627c19.4,19.4,29,42.4,29,69c0,27.1-9.6,50.2-28.7,69.3c-19,19-42.2,28.6-69.2,28.6c-27.1,0-50.3-9.6-69.3-28.6C215.6,746.2,206,723.2,206,696c0-27.1,9.6-50.3,28.7-69.3c19.1-19.2,42.2-28.8,69.3-28.8C330.7,598,353.6,607.6,373,627z M486.9,513.2c-34.1-34.1-74.6-61.1-121.4-81.2c-46.9-20-96-30-147.5-30c-3.6,0-6.5,1.1-8.6,3.2c-2.3,2.3-3.3,5.1-3.3,8.6v83.2c0,3.4,1.1,6.4,3.3,8.5c2.2,2.2,5,3.3,8.6,3.3c75.6,0,140,26.6,193.3,79.9c53.2,53.2,79.7,117.7,79.7,193.3c0,3.5,1.2,6.3,3.3,8.5c2.2,2.2,5,3.4,8.6,3.4h83.1c3.6,0,6.4-1.1,8.6-3.4c2.2-2.2,3.3-5,3.3-8.5c0-51.5-10-100.6-30-147.5C548,587.7,520.9,547.3,486.9,513.2z M507.2,283.3C418.9,231.7,322.6,206,218.3,206c-3.7,0-6.6,1.2-8.8,3.4c-2.3,2.2-3.4,5.2-3.4,8.8V304c0,3.7,1.2,6.7,3.4,8.9c2.3,2.2,5.2,3.3,8.8,3.3c63.1,0,123.4,12.2,181.1,36.8c57.6,24.4,107.1,57.5,148.7,98.9c41.5,41.6,74.5,91.2,99,148.8c24.4,57.6,36.7,118,36.7,181c0,3.7,1.2,6.6,3.4,8.9c2.3,2.2,5.2,3.3,8.8,3.3h85.7c3.7,0,6.7-1.1,8.9-3.3c2.3-2.4,3.3-5.3,3.3-8.9c0-104.3-25.7-200.7-77.2-288.8C665.2,404.6,595.4,334.8,507.2,283.3z M990,206v588c0,108.3-87.7,196-196,196H206C97.8,990,10,902.3,10,794V206C10,97.8,97.8,10,206,10h588C902.3,10,990,97.8,990,206z M892.1,255c0-81.2-65.9-146.9-147-146.9H255c-81.2,0-146.9,65.7-146.9,146.9v490c0,81.2,65.8,146.9,146.9,146.9h490c81.2,0,147-65.8,147-146.9V255L892.1,255z" style="fill:#EA8010"/></g>
</svg>