<?xml version="1.0" encoding="utf-8"?>
<!-- Svg Vector Icons : http://www.onlinewebfonts.com/icon -->
<!DOCTYPE svg PUBLIC "-//W3C//DTD SVG 1.1//EN" "http://www.w3.org/Graphics/SVG/1.1/DTD/svg11.dtd">
<svg version="1.1" xmlns="http://www.w3.org/2000/svg" xmlns:xlink="http://www.w3.org/1999/xlink" x="55px" y="55px" viewBox="0 0 1000 1000" enable-background="new 0 0 1000 1000" xml:space="preserve">
<metadata> Svg Vector Icons : http://www.onlinewebfonts.com/icon </metadata>
<g><g transform="translate(0.000000,512.000000) scale(0.100000,-0.100000)"><path d="M1487.3,4990.8c-103.4-44-206.7-157-248.9-269.9c-38.3-101.5-38.3-155-38.3-4649.8c0-3886,3.8-4554.1,26.8-4598.1c15.3-28.7,61.3-84.2,101.5-122.5c145.5-141.7-168.5-130.2,3671.6-130.2c3840.1,0,3526.1-11.5,3671.6,130.2c40.2,38.3,86.1,93.8,101.5,122.5c23,44,26.8,583.9,26.8,3665.9c0,2523-5.7,3637.2-21.1,3690.8c-17.2,65.1-168.5,225.9-1037.5,1098.8C7054,4617.5,6698,4960.1,6646.3,4985c-72.7,34.5-172.3,36.4-2584.3,34.5C1866.3,5019.5,1546.6,5015.7,1487.3,4990.8z M6430,3696.7c-1.9-539.8-7.7-983.9-11.5-987.8c-3.8-3.8-42.1,15.3-84.2,44c-109.1,72.7-283.3,88.1-342.7,30.6c-61.3-57.4-74.6-128.3-38.3-202.9c30.6-65.1,47.9-74.7,168.4-93.8c135.9-23,141.7-38.3,147.4-526.4c1.9-243.1,13.4-461.4,24.9-499.6c24.9-78.5,97.6-199.1,166.5-271.8l49.8-53.6l-49.8-51.7C6290.2,898,6273,825.3,6271.1,337.1c0-225.9-9.6-436.5-21.1-467.1c-19.2-55.5-49.8-68.9-212.5-103.4c-36.4-7.6-63.2-30.6-84.2-74.6c-34.5-76.6-23-147.4,34.5-204.8c34.5-34.5,57.4-40.2,151.2-32.5c147.4,11.5,292.9,103.4,384.8,246.9l65.1,101.5l9.6,470.9c9.6,428.8,13.4,474.7,49.8,536C6698,898,6814.7,963.1,6920,963.1c162.7,0,250.8,162.7,151.2,279.5c-36.4,42.1-68.9,55.5-162.7,65.1c-132.1,17.2-216.3,67-268,158.9c-26.8,51.7-34.5,134-42.1,532.2l-9.6,470.9l-53.6,80.4c-30.6,45.9-51.7,86.1-47.9,90c3.8,3.8,449.9,9.6,987.8,11.5l980.1,5.7V547.7v-2111.5H5000H1544.7v3106.9c0,1709.5,5.7,3114.6,13.4,3120.3c5.7,7.7,1106.5,13.4,2444.5,13.4h2433.1L6430,3696.7z M7488.6,3700.5l708.3-708.3h-714h-712.1v708.3c0,390.5,1.9,708.3,5.7,708.3C6778.4,4408.8,7100,4091.1,7488.6,3700.5z M8455.3-3171.8v-1263.4H5000H1544.7v1263.4v1263.4H5000h3455.3V-3171.8z" fill="#c7737a"/><path d="M3554.7,2779.8c-114.9-51.7-224-158.9-279.5-275.7c-44-91.9-45.9-112.9-45.9-516.9c0-400.1-1.9-426.9-42.1-507.3c-59.3-112.9-120.6-153.1-262.3-170.4c-149.3-17.2-202.9-63.2-202.9-174.2s53.6-157,202.9-174.2c141.7-17.2,202.9-57.4,262.3-170.4c40.2-80.4,42.1-107.2,42.1-507.3c0-402,1.9-425,45.9-518.8c84.2-180,241.2-294.8,426.9-310.1c86.1-7.7,105.3-1.9,147.4,40.2c34.5,34.5,49.8,70.8,49.8,114.9c0,95.7-51.7,147.4-162.7,168.5c-162.7,30.6-157,17.2-166.5,520.7c-9.6,507.3-26.8,585.8-170.4,748.5l-78.5,88.1l78.5,88.1c141.7,162.7,160.8,241.2,170.4,744.7c7.7,497.7,7.7,497.7,153.1,518.8c112.9,17.2,176.1,78.5,176.1,170.4C3899.3,2808.5,3740.4,2864,3554.7,2779.8z" fill="#c7737a"/><path d="M4785.6,1939.4c-143.6-86.1-160.8-283.3-36.4-396.3c59.3-53.6,82.3-63.2,166.5-63.2c88.1,0,105.3,7.7,172.3,74.7c65.1,63.2,74.7,86.1,74.7,157c0,107.2-30.6,166.5-112.9,222.1C4969.4,1987.3,4867.9,1991.1,4785.6,1939.4z" fill="#c7737a"/><path d="M4791.3,731.5c-47.9-57.4-49.8-65.1-49.8-344.6c0-222.1,7.7-300.5,28.7-344.6c55.5-105.3,202.9-118.7,277.6-23c34.5,44,38.3,78.5,38.3,344.6c0,365.6-24.9,425-176.1,426.9C4856.4,790.8,4829.6,777.4,4791.3,731.5z" fill="#c7737a"/><path d="M2865.6-3035.9c0-379-7.7-691.1-19.1-717.9c-9.6-26.8-40.2-63.2-70.8-82.3c-72.7-47.9-285.2-42.1-434.5,11.5c-124.4,44-135.9,40.2-193.3-65.1c-36.4-70.8-36.4-70.8,0-97.6c76.6-57.4,333.1-122.5,476.7-122.5c243.1,0,398.2,70.8,476.7,216.3c40.2,78.5,42.1,97.6,47.9,804l5.7,721.7H3011h-145.5V-3035.9z" fill="#c7737a"/><path d="M3931.8-2386.9c-243.1-61.3-377.1-224-377.1-459.4c0-210.6,99.5-331.2,403.9-488.1c229.7-118.7,304.4-191.4,304.4-294.8c0-235.5-218.2-321.6-541.7-214.4c-72.7,24.9-134,40.2-135.9,38.3c-3.8-3.8-15.3-45.9-26.8-93.8c-21.1-78.5-19.1-90,17.2-118.7c97.6-82.3,419.2-116.8,599.2-65.1c292.9,86.1,436.5,417.3,289.1,673.8c-57.4,97.6-130.2,153.1-335,256.5c-220.1,109.1-281.4,158.9-308.2,247c-59.3,201,179.9,358,432.6,281.4c51.7-15.3,95.7-26.8,95.7-24.9c1.9,1.9,24.9,44,53.6,93.8c28.7,49.8,51.7,93.8,51.7,97.6c0,5.8-40.2,23-90,40.2C4247.7-2379.2,4025.6-2363.9,3931.8-2386.9z" fill="#c7737a"/><path d="M5340.7-2386.9c-162.7-34.5-331.2-151.2-421.1-294.8c-86.1-134-122.5-275.6-134-499.6c-21-432.6,118.7-729.3,413.5-874.8c74.6-36.4,118.7-44,289.1-44c193.3,0,204.8,1.9,323.5,67c248.9,134,384.8,415.4,384.8,792.5c-1.9,386.7-158.9,683.4-428.8,807.8C5656.6-2383.1,5461.3-2362,5340.7-2386.9z M5618.3-2628.1c185.7-76.6,271.8-247,287.1-562.8c19.2-423.1-114.9-666.2-379-685.3c-145.5-11.5-231.6,19.1-314,111c-109.1,120.6-151.2,294.8-141.7,570.5c5.7,193.3,15.3,239.3,57.4,329.3c74.6,153.1,118.7,197.2,239.3,241.2C5463.3-2589.8,5532.2-2591.7,5618.3-2628.1z" fill="#c7737a"/><path d="M6583.1-3252.2l5.7-848l137.8-5.7l139.7-5.7l3.8,583.9l5.7,583.9l331.2-583.9l331.2-583.9l137.8,5.7l137.8,5.7l5.7,848l3.8,846.1H7680h-143.6l-3.8-576.2l-5.7-578.1L7201.4-2988L6876-2415.6l-149.3,5.7l-147.4,5.8L6583.1-3252.2z" fill="#c7737a"/></g></g>
</svg>