<?xml version="1.0" encoding="UTF-8" standalone="no"?>
<svg width="55px" height="55px" viewBox="0 0 55 55" version="1.1" xmlns="http://www.w3.org/2000/svg" xmlns:xlink="http://www.w3.org/1999/xlink" xmlns:sketch="http://www.bohemiancoding.com/sketch/ns">
    <!-- Generator: Sketch 3.3.2 (12043) - http://www.bohemiancoding.com/sketch -->
    <title>icon_coding</title>
    <desc>Created with Sketch.</desc>
    <defs></defs>
    <g id="mydata_239_update" stroke="none" stroke-width="1" fill="none" fill-rule="evenodd" sketch:type="MSPage">
        <g id="Artboard-20" sketch:type="MSArtboardGroup" transform="translate(-50.000000, -59.000000)">
            <g id="icon_coding-+-icon_coding" sketch:type="MSLayerGroup" transform="translate(50.000000, 59.000000)">
                <g id="code10" transform="translate(1.000000, 1.000000)" sketch:type="MSShapeGroup">
                    <circle id="Oval-2" fill="#EC3E82" cx="26.5" cy="26.5" r="26.5"></circle>
                    <path d="M29.81434,16.2847656 L28.90498,16.0343527 C28.7878,15.9951183 28.6726,16.0074129 28.56046,16.0712366 C28.44796,16.1350603 28.372,16.2308862 28.33294,16.3585335 L22.86274,35.3758147 C22.82368,35.5034621 22.83592,35.6238772 22.89946,35.7366987 C22.963,35.8497009 23.05822,35.9258192 23.18548,35.9650536 L24.09466,36.2154665 C24.21202,36.2550625 24.32686,36.2427679 24.43936,36.1787634 C24.55186,36.1147589 24.62764,36.0191138 24.6667,35.8916473 L30.1369,16.8741853 C30.17596,16.7465379 30.16372,16.6261228 30.10018,16.5131205 C30.03664,16.4001183 29.94142,16.324 29.81434,16.2847656 L29.81434,16.2847656 Z" id="Shape" fill="#FFFFFF"></path>
                    <path d="M21.6166,19.9972054 C21.6166,19.869558 21.56764,19.7565558 21.4699,19.6583795 L20.73658,18.9217857 C20.63884,18.8236094 20.52634,18.7744308 20.39926,18.7744308 C20.27218,18.7744308 20.15968,18.8236094 20.06194,18.9217857 L13.22806,25.7861741 C13.13014,25.8843504 13.08136,25.9973527 13.08136,26.125 C13.08136,26.2526473 13.13032,26.3656496 13.22806,26.4638259 L20.06194,33.3282143 C20.15968,33.4265714 20.272,33.4753884 20.39926,33.4753884 C20.52652,33.4753884 20.63884,33.4263906 20.73658,33.3282143 L21.4699,32.5919821 C21.56764,32.4938058 21.6166,32.3808036 21.6166,32.2529754 C21.6166,32.1255089 21.56764,32.0125067 21.4699,31.9143304 L15.70648,26.125 L21.4699,20.3360312 C21.56782,20.2378549 21.6166,20.1248527 21.6166,19.9972054 L21.6166,19.9972054 Z" id="Shape" fill="#FFFFFF"></path>
                    <path d="M39.77176,25.7859933 L32.9377,18.9216049 C32.83996,18.8234286 32.72746,18.77425 32.60056,18.77425 C32.4733,18.77425 32.36116,18.8234286 32.26306,18.9216049 L31.5301,19.6581987 C31.43236,19.756375 31.38358,19.8691964 31.38358,19.9970246 C31.38358,20.1248527 31.43236,20.2376741 31.5301,20.3358504 L37.29352,26.125 L31.5301,31.9143304 C31.43236,32.0125067 31.38358,32.1255089 31.38358,32.2529754 C31.38358,32.3808036 31.43236,32.4938058 31.5301,32.5919821 L32.26306,33.3282143 C32.36116,33.4265714 32.4733,33.4753884 32.60056,33.4753884 C32.72746,33.4753884 32.83996,33.4263906 32.9377,33.3282143 L39.77176,26.4638259 C39.8695,26.3656496 39.91828,26.2524665 39.91828,26.1248192 C39.91828,25.9971719 39.8695,25.8841696 39.77176,25.7859933 L39.77176,25.7859933 Z" id="Shape" fill="#FFFFFF"></path>
                </g>
            </g>
        </g>
    </g>
</svg>