<?xml version="1.0" encoding="utf-8"?>
<!-- Svg Vector Icons : http://www.onlinewebfonts.com/icon -->
<!DOCTYPE svg PUBLIC "-//W3C//DTD SVG 1.1//EN" "http://www.w3.org/Graphics/SVG/1.1/DTD/svg11.dtd">
<svg version="1.1" xmlns="http://www.w3.org/2000/svg" xmlns:xlink="http://www.w3.org/1999/xlink" x="55px" y="55px" viewBox="0 0 1000 1000" enable-background="new 0 0 1000 1000" xml:space="preserve">
<metadata> Svg Vector Icons : http://www.onlinewebfonts.com/icon </metadata>
<g><path d="M409.4,365.3c118,0,240.6-25.2,314.3-73.3v87.6h68.2V187.6C791.9,72.3,594.8,10,409.4,10S26.9,72.3,26.9,187.6v523.6c0,115.4,197.1,177.6,382.5,177.6v-66.4c-194.7,0-314.3-64.8-314.3-111.3l0-157.5c73.6,48.1,196.3,73.3,314.3,73.3v-66.4c-194.7,0-314.3-64.8-314.3-111.3l0-157.5C168.7,340,291.4,365.3,409.4,365.3L409.4,365.3z M409.4,76.4c194.7,0,314.3,64.8,314.3,111.3c0,46.5-119.6,111.2-314.3,111.2c-194.7,0-314.3-64.8-314.3-111.2C95.1,141.2,214.7,76.4,409.4,76.4L409.4,76.4z M715.1,401.5c-169.4,0-258,63.4-258,126V864c0,62.6,88.6,126,258,126c168.1,0,256.6-62.4,257.9-124.6h0.1V527.5C973.1,464.9,884.5,401.5,715.1,401.5L715.1,401.5z M715.1,467.9c125.2,0,189.8,41.8,189.8,59.6c0,17.8-64.6,59.6-189.8,59.6c-125.2,0-189.8-41.8-189.8-59.6C525.4,509.7,589.9,467.9,715.1,467.9L715.1,467.9z M715.1,923.6c-125.2,0-189.8-41.8-189.8-59.6v-80.3c43.3,22.9,106.8,38.1,189.8,38.1c82.9,0,146.5-15.2,189.8-38.1V864C904.9,881.8,840.3,923.6,715.1,923.6L715.1,923.6z M715.1,755.4c-125.2,0-189.8-41.8-189.8-59.6v-80.3c43.3,22.9,106.8,38.1,189.8,38.1c82.9,0,146.5-15.2,189.8-38.1v80.3C904.9,713.6,840.3,755.4,715.1,755.4L715.1,755.4z" style="fill:#335681"/></g>
</svg>