<?xml version="1.0" encoding="utf-8"?>
<!-- Svg Vector Icons : http://www.onlinewebfonts.com/icon -->
<!DOCTYPE svg PUBLIC "-//W3C//DTD SVG 1.1//EN" "http://www.w3.org/Graphics/SVG/1.1/DTD/svg11.dtd">
<svg version="1.1" xmlns="http://www.w3.org/2000/svg" xmlns:xlink="http://www.w3.org/1999/xlink" x="55px" y="55px" viewBox="0 0 1000 1000" enable-background="new 0 0 1000 1000" xml:space="preserve">
<metadata> Svg Vector Icons : http://www.onlinewebfonts.com/icon </metadata>
<g><path d="M816.5,989.7c-0.8-439.2-384.2-798.2-806.5-799V10.3c518.1,0,980,440.5,980,979.3H816.5z M667.7,989.6H494.2c0.5-107.9-54.2-228.6-141-318.9c-86.2-91.1-239.2-148.5-342.8-148V342.3C334,349.3,661.2,654.8,667.7,989.6z M133,744.8c67.6,0,122.4,54.8,122.4,122.4c0,67.6-54.8,122.4-122.4,122.4c-67.6,0-122.3-54.8-122.3-122.4C10.6,799.5,65.4,744.8,133,744.8z" style="fill:#EA8010"/></g>
</svg>