<?xml version="1.0" encoding="utf-8"?>
<!-- Svg Vector Icons : http://www.onlinewebfonts.com/icon -->
<!DOCTYPE svg PUBLIC "-//W3C//DTD SVG 1.1//EN" "http://www.w3.org/Graphics/SVG/1.1/DTD/svg11.dtd">
<svg version="1.1" xmlns="http://www.w3.org/2000/svg" xmlns:xlink="http://www.w3.org/1999/xlink" x="0px" y="0px" viewBox="0 0 1000 1000" enable-background="new 0 0 1000 1000" xml:space="preserve">
<metadata> Svg Vector Icons : http://www.onlinewebfonts.com/icon </metadata>
<g><path  fill="#fde498" d="M867.6,276.2l-236.5-256c-6-6.5-14.4-10.2-23.3-10.2H221.3c-53.7,0-97.3,43.7-97.3,97.3v785.3c0,53.7,43.6,97.3,97.3,97.3h557.5c53.6,0,97.3-43.7,97.3-97.3V297.7C876.1,289.7,873.1,282.1,867.6,276.2z M783.5,278.4H622.9V104.6L783.5,278.4z M812.7,892.7c0,18.7-15.2,34-34,34H221.3c-18.7,0-34-15.3-34-34V107.3c0-18.7,15.2-34,34-34H593v220c0,8.3,6.7,15,15,15h203.2l1.6,1.7V892.7z"/><path fill="#fde498" d="M305,463.1h390.2v38.6H305V463.1z"/><path fill="#fde498" d="M305,579.7h390.2v38.6H305V579.7z"/><path fill="#fde498" d="M305,689.4h390.2V728H305V689.4z"/></g>
</svg>