<?xml version="1.0" encoding="utf-8"?>
<!-- Generator: Adobe Illustrator 16.0.0, SVG Export Plug-In . SVG Version: 6.00 Build 0)  -->
<!DOCTYPE svg PUBLIC "-//W3C//DTD SVG 1.1//EN" "http://www.w3.org/Graphics/SVG/1.1/DTD/svg11.dtd">
<svg version="1.1" id="Layer_1" xmlns="http://www.w3.org/2000/svg" xmlns:xlink="http://www.w3.org/1999/xlink" x="0px" y="0px"
	 width="27px" height="27px" viewBox="0 0 27 27" enable-background="new 0 0 27 27" xml:space="preserve">
<g>
	<path fill="#010101" d="M9.453,26.234L1.239,16.188c-0.847-1.031-0.665-2.536,0.409-3.354c1.072-0.816,2.63-0.639,3.479,0.394
		l4.165,5.096L21.814,1.75c0.806-1.064,2.357-1.305,3.463-0.525c1.104,0.78,1.344,2.273,0.541,3.34L9.453,26.234z"/>
	<path fill="#010101" d="M9.453,27c-0.203,0-0.396-0.094-0.529-0.258L0.711,16.696c-0.537-0.654-0.783-1.479-0.693-2.321
		c0.094-0.868,0.528-1.638,1.225-2.168c0.561-0.427,1.23-0.652,1.938-0.652c0.965,0,1.867,0.424,2.476,1.164l3.615,4.424
		L21.268,1.264C21.867,0.472,22.822,0,23.822,0c0.664,0,1.3,0.201,1.84,0.583c0.718,0.506,1.182,1.262,1.305,2.128
		c0.12,0.834-0.094,1.665-0.602,2.339L10,26.719C9.868,26.893,9.673,26.996,9.467,27C9.462,27,9.457,27,9.453,27z M3.18,13.087
		c-0.414,0-0.804,0.13-1.125,0.374c-0.361,0.276-0.586,0.664-0.633,1.092c-0.043,0.402,0.08,0.802,0.346,1.126l7.664,9.374
		l15.84-20.974c0.25-0.333,0.356-0.735,0.299-1.133c-0.061-0.43-0.303-0.813-0.68-1.079c-0.31-0.219-0.68-0.335-1.068-0.335
		c-0.582,0-1.129,0.263-1.461,0.703L9.838,18.81c-0.131,0.174-0.326,0.276-0.533,0.28C9.1,19.096,8.9,19,8.763,18.832l-4.164-5.096
		C4.26,13.324,3.742,13.087,3.18,13.087z"/>
</g>
</svg>
