<?xml version="1.0" encoding="utf-8"?>
<!-- Generator: Adobe Illustrator 17.1.0, SVG Export Plug-In . SVG Version: 6.00 Build 0)  -->
<!DOCTYPE svg PUBLIC "-//W3C//DTD SVG 1.1//EN" "http://www.w3.org/Graphics/SVG/1.1/DTD/svg11.dtd">
<svg version="1.1" id="Calque_1" xmlns="http://www.w3.org/2000/svg" xmlns:xlink="http://www.w3.org/1999/xlink" x="0px" y="0px"
	 viewBox="0 0 95 72.4" enable-background="new 0 0 95 72.4" xml:space="preserve">
<path d="M96.7,23.4c-2.5-2.5-5.1-4.5-7.9-6.1v-2.9c0-1.5-1.1-2.7-2.5-3c-2.8-0.5-5.5-0.7-8.2-0.7c-14.9,0-24.3,7.2-28.2,10.8
	c-3.9-2.9-12.8-8.3-23.5-8.3c-8.5,0-16.2,3.4-22.9,10.2C3,24,2.7,24.7,2.7,25.5v53.2c0,1,0.5,2,1.4,2.6c0.9,0.6,2,0.6,2.9,0.1
	c0.1,0,7.8-3.8,19.1-3.8c7.8,0,15.4,1.7,22.7,5.2c0,0,0,0,0,0c0.2,0.1,0.4,0.2,0.6,0.2c0,0,0.1,0,0.1,0c0.2,0,0.4,0.1,0.6,0.1
	c0,0,0,0,0,0c0.2,0,0.3,0,0.5,0c0.6,0,1.1-0.2,1.6-0.6c7-3.2,14.4-4.8,21.9-4.8c11.3,0,19.1,3.8,19.1,3.8c0.9,0.5,2.1,0.4,2.9-0.1
	c0.9-0.6,1.4-1.5,1.4-2.6V25.5C97.6,24.7,97.3,24,96.7,23.4z M53.4,26.7c2.3-2.4,10.6-9.9,24.7-9.9c1.5,0,3.1,0.1,4.7,0.3v47.1
	c-1-0.1-2.1-0.1-3.3-0.1c-5.8,0-16.2,1.3-26,9.1C53.4,73.1,53.4,26.7,53.4,26.7z M8.7,74.3V26.8c5.3-5,11.3-7.5,17.8-7.5
	c9.6,0,17.8,5.6,20.6,7.7v0.2v48.3c-6.8-2.6-13.8-3.9-20.9-3.9C18.7,71.6,12.6,73.1,8.7,74.3z M91.6,74.3c-3.8-1.2-9.9-2.7-17.5-2.7
	c-2.1,0-4.1,0.1-6.2,0.3c4.2-1.4,8.2-1.9,11.6-1.9c3.4,0,5.7,0.5,5.7,0.5c0.9,0.2,1.9,0,2.6-0.6c0.7-0.6,1.2-1.5,1.2-2.4V24.4
	c0.9,0.8,1.8,1.7,2.7,2.5V74.3z"/>
<path d="M73.1,34.1c0,0.9-0.3,1.6-0.9,2.2L43.7,64.8c-0.6,0.6-1.4,0.9-2.2,0.9s-1.6-0.3-2.2-0.9L22.8,48.3c-0.6-0.6-0.9-1.4-0.9-2.2
	s0.3-1.6,0.9-2.2l4.5-4.5c0.6-0.6,1.4-0.9,2.2-0.9c0.9,0,1.6,0.3,2.2,0.9l9.7,9.7l21.7-21.7c0.6-0.6,1.4-0.9,2.2-0.9
	s1.6,0.3,2.2,0.9l4.5,4.5C72.8,32.5,73.1,33.2,73.1,34.1z"/>
</svg>
