<?xml version="1.0" encoding="utf-8"?>
<!-- Generator: Adobe Illustrator 18.1.0, SVG Export Plug-In . SVG Version: 6.00 Build 0)  -->
<svg version="1.1" id="Layer_1" xmlns="http://www.w3.org/2000/svg" xmlns:xlink="http://www.w3.org/1999/xlink" x="0px" y="0px"
	 viewBox="0 0 500 500" enable-background="new 0 0 500 500" xml:space="preserve">
<g>
	<path fill="#010101" d="M471.3,274.3c0-119.9-95.4-217.4-214.4-221V28h14.8c6.1,0,11.1-5.4,11.1-12.1s-5-12.1-11.1-12.1h-43.3
		c-6.1,0-11.1,5.4-11.1,12.1s5,12.1,11.1,12.1h14.8v25.3c-119,3.6-214.4,101.2-214.4,221c0,71,33.4,134.1,85.4,174.6L87,476.2
		c-4.4,4.4-4,11.6,0.7,16.3c4.7,4.7,12.1,5,16.3,0.7l30.3-30.3c33.7,20.7,73.2,32.7,115.6,32.7s81.9-12,115.6-32.7l30.3,30.2
		c4.4,4.4,11.6,4,16.3-0.7c4.7-4.7,5-12.1,0.7-16.3l-27.3-27.3C437.7,408.4,471.3,345.3,471.3,274.3z M68.4,274.3
		c0-100.2,81.4-181.6,181.6-181.6s181.6,81.4,181.6,181.6S350.2,455.9,250,455.9S68.4,374.5,68.4,274.3z"/>
	<rect x="94.1" y="267.4" fill="#010101" width="26.8" height="13.6"/>
	<rect x="379.1" y="267.4" fill="#010101" width="26.8" height="13.6"/>
	<rect x="243.3" y="403.3" fill="#010101" width="13.6" height="26.8"/>
	<rect x="243.3" y="118.4" fill="#010101" width="13.6" height="26.8"/>
	<path fill="#010101" d="M334.8,215.2l-90.4,47.9c-1.2,0.6-2.4,1.5-3.2,2.5c-0.1,0.1-0.1,0.1-0.2,0.2l-50.5,50.5
		c-5.1,5.1-5.1,13.6,0,18.7c5.1,5.1,13.6,5.1,18.7,0l49.5-49.5l88.6-46.9c6.5-3.4,8.9-11.5,5.5-17.8
		C349.3,214.2,341.3,211.7,334.8,215.2z M250,279.4c-2.9,0-5.2-2.4-5.2-5.2c0-2.9,2.4-5.2,5.2-5.2s5.2,2.4,5.2,5.2
		C255.2,277.2,252.9,279.4,250,279.4z"/>
	<path fill="#010101" d="M36.7,53l-9,9C-5.3,95.1-8.8,146.5,17.1,183.5L158.2,42.3C121.2,16.5,69.9,20,36.7,53z"/>
	<path fill="#010101" d="M472.3,62l-9-9C430.2,20,378.8,16.5,341.8,42.4l141.1,141.1C508.8,146.5,505.3,95.1,472.3,62z"/>
</g>
</svg>
