<?xml version="1.0" encoding="utf-8"?>
<!-- Generator: Adobe Illustrator 18.1.0, SVG Export Plug-In . SVG Version: 6.00 Build 0)  -->
<svg version="1.1" id="Layer_1" xmlns="http://www.w3.org/2000/svg" xmlns:xlink="http://www.w3.org/1999/xlink" x="0px" y="0px"
	 viewBox="0 0 500 500" enable-background="new 0 0 500 500" xml:space="preserve">
<path fill="#010101" d="M489,82.2l-83.3,83.3h-29.5l-20.9-20.9l-20.9-20.9V94.3L417.8,11c-49.5-21.1-109-11.6-149.3,28.7
	c-36.5,36.5-47.9,88.6-34.1,134.7L18.7,390.1l0.1,0.1c-25.1,25.1-25.1,65.8,0,91c25.1,25.1,65.8,25.1,91,0l0.1,0.1l215.7-215.7
	c46.2,13.7,98.2,2.4,134.7-34.1C500.7,191.1,510.3,131.7,489,82.2z M93.3,451.4c-12.4,12.4-32.4,12.4-44.7,0
	c-12.4-12.4-12.4-32.4,0-44.7c12.4-12.4,32.4-12.4,44.7,0C105.7,419.1,105.7,439,93.3,451.4z"/>
</svg>
