<?xml version="1.0" encoding="utf-8"?>
<!-- Generator: Adobe Illustrator 16.0.0, SVG Export Plug-In . SVG Version: 6.00 Build 0)  -->
<!DOCTYPE svg PUBLIC "-//W3C//DTD SVG 1.1//EN" "http://www.w3.org/Graphics/SVG/1.1/DTD/svg11.dtd">
<svg version="1.1" id="Calque_1" xmlns="http://www.w3.org/2000/svg" xmlns:xlink="http://www.w3.org/1999/xlink" x="0px" y="0px"
	 width="94.958px" height="72.407px" viewBox="2.676 10.722 94.958 72.407" enable-background="new 2.676 10.722 94.958 72.407"
	 xml:space="preserve">
<path d="M96.745,23.405c-2.492-2.491-5.122-4.505-7.868-6.084v-2.906c0-1.479-1.066-2.742-2.525-2.988
	c-2.772-0.468-5.535-0.705-8.211-0.705c-14.937,0-24.33,7.179-28.153,10.84c-3.943-2.874-12.827-8.326-23.479-8.326
	c-8.48,0-16.199,3.421-22.945,10.167c-0.569,0.569-0.888,1.339-0.888,2.143V78.75c0,1.048,0.545,2.02,1.435,2.57
	C5,81.874,6.115,81.93,7.055,81.464c0.077-0.038,7.826-3.798,19.142-3.798c7.77,0,15.395,1.74,22.663,5.172
	c0.004,0.002,0.01,0.003,0.014,0.005c0.186,0.087,0.379,0.15,0.576,0.197c0.034,0.008,0.068,0.015,0.103,0.022
	c0.198,0.039,0.399,0.066,0.601,0.066c0.017,0,0.033-0.005,0.049-0.005c0.152-0.003,0.303-0.019,0.454-0.043
	c0.558-0.047,1.098-0.237,1.556-0.578c7.039-3.198,14.4-4.836,21.898-4.836c11.314,0,19.063,3.76,19.137,3.795
	c0.939,0.472,2.055,0.419,2.947-0.134c0.896-0.555,1.438-1.526,1.438-2.577V25.547C97.633,24.744,97.312,23.973,96.745,23.405z
	 M53.438,26.68c2.297-2.403,10.59-9.897,24.703-9.897c1.531,0,3.096,0.089,4.678,0.266v47.085c-0.965-0.082-2.09-0.139-3.344-0.139
	c-5.832,0-16.207,1.305-26.037,9.112V26.68z M8.738,74.322V26.831c5.344-4.998,11.317-7.532,17.771-7.532
	c9.594,0,17.816,5.566,20.615,7.699v0.246v48.264c-6.769-2.592-13.788-3.904-20.927-3.904C18.657,71.604,12.558,73.074,8.738,74.322
	z M91.574,74.323c-3.821-1.248-9.922-2.718-17.461-2.718c-2.076,0-4.141,0.123-6.192,0.346c4.244-1.442,8.247-1.896,11.552-1.896
	c3.438,0,5.656,0.508,5.67,0.51c0.901,0.215,1.854,0.006,2.582-0.566c0.728-0.575,1.152-1.452,1.152-2.38V24.353
	c0.912,0.823,1.816,1.657,2.697,2.479V74.323z"/>
</svg>
