<?xml version="1.0" encoding="utf-8"?>
<!-- Generator: Adobe Illustrator 18.1.0, SVG Export Plug-In . SVG Version: 6.00 Build 0)  -->
<svg version="1.1" id="Layer_1" xmlns="http://www.w3.org/2000/svg" xmlns:xlink="http://www.w3.org/1999/xlink" x="0px" y="0px"
	 viewBox="0 0 500 500" enable-background="new 0 0 500 500" xml:space="preserve">
<path fill="#010101" d="M492.1,213.8h-62.2C412.6,111.5,323.6,33.5,216.5,33.5C97,33.5,0.1,130.5,0.1,250S97,466.5,216.5,466.5
	c54.5,0,104.3-20.2,142.3-53.4L314,356.2c-25.7,23.6-59.9,38.1-97.4,38.1c-79.6,0-144.3-64.7-144.3-144.3s64.7-144.3,144.3-144.3
	c67.1,0,123.4,46,139.5,108.1h-63c-7.9,0-10.3,5.1-5.3,11.2l95.8,117.9c5,6.2,13.1,6.2,18.2,0L497.6,225
	C502.4,218.9,500,213.8,492.1,213.8z"/>
</svg>
