<?xml version="1.0" encoding="utf-8"?>
<!-- Svg Vector Icons : http://www.onlinewebfonts.com/icon -->
<!DOCTYPE svg PUBLIC "-//W3C//DTD SVG 1.1//EN" "http://www.w3.org/Graphics/SVG/1.1/DTD/svg11.dtd">
<svg version="1.1" xmlns="http://www.w3.org/2000/svg" xmlns:xlink="http://www.w3.org/1999/xlink" x="0px" y="0px" viewBox="0 0 1000 1000" enable-background="new 0 0 1000 1000" xml:space="preserve">
<metadata> Svg Vector Icons : http://www.onlinewebfonts.com/icon </metadata>
<g><path d="M730.9,551.5v-103L613.6,415c-3.2-9.2-6.9-18.1-11.1-26.8l59.3-106.7l-72.8-72.8L482.2,268c-8.6-4.2-17.6-7.9-26.7-11.1l-33.5-117.4h-103l-33.5,117.4c-9.1,3.2-18,6.9-26.7,11.1L152,208.7l-72.9,72.8l59.3,106.7c-4.2,8.7-7.9,17.6-11.1,26.7L10,448.5v103L127.4,585c3.2,9.2,6.9,18.1,11.1,26.7L79.1,718.5l72.9,72.8L258.7,732c8.6,4.2,17.5,7.9,26.7,11.1l33.5,117.4h103L455.5,743c9.1-3.2,18.1-6.9,26.7-11.1l106.7,59.3l72.8-72.8l-59.3-106.7c4.2-8.7,7.9-17.6,11.1-26.8L730.9,551.5z M370.4,620.1c-66.4,0-120.2-53.8-120.2-120.2c0-66.3,53.8-120.1,120.2-120.1c66.4,0,120.2,53.8,120.2,120.1C490.6,566.3,436.8,620.1,370.4,620.1z" fill="#ffffff"/><path d="M977.7,373.7l12.3-44.1l-46.2-28.4c-0.3-4.3-0.8-8.6-1.6-12.8l38.1-38.6L957.9,210l-52.8,12.6c-3.2-2.8-6.6-5.5-10.1-7.9l-0.3-54.3l-44.1-12.3l-28.4,46.3c-4.3,0.3-8.6,0.8-12.7,1.6l-38.6-38.1l-39.9,22.5l12.6,52.8c-2.8,3.2-5.5,6.6-7.9,10.1l-54.3,0.3L669,287.6l46.3,28.4c0.3,4.3,0.8,8.5,1.5,12.7l-38.1,38.6l22.5,39.9l52.8-12.6c3.2,2.8,6.6,5.5,10.1,7.9l0.3,54.3l44.1,12.3l28.4-46.3c4.3-0.3,8.6-0.8,12.8-1.6l38.6,38.1l39.9-22.5l-12.6-52.8c2.8-3.2,5.5-6.6,7.9-10.1L977.7,373.7z M881,323c-7.9,28.4-37.4,45-65.8,37.1c-28.4-7.9-45-37.4-37.1-65.8c7.9-28.4,37.4-45,65.8-37.1C872.3,265.1,888.9,294.6,881,323z" fill="#ffffff"/><path d="M776.1,565.3" fill="#ffffff"/></g>
</svg>