<?xml version="1.0" encoding="utf-8"?>
<!-- Svg Vector Icons : http://www.onlinewebfonts.com/icon -->
<!DOCTYPE svg PUBLIC "-//W3C//DTD SVG 1.1//EN" "http://www.w3.org/Graphics/SVG/1.1/DTD/svg11.dtd">
<svg version="1.1" xmlns="http://www.w3.org/2000/svg" xmlns:xlink="http://www.w3.org/1999/xlink" x="55px" y="55px" viewBox="0 0 1000 1000" enable-background="new 0 0 1000 1000" xml:space="preserve">
<metadata> Svg Vector Icons : http://www.onlinewebfonts.com/icon </metadata>
<g><path d="M990,500c-0.3,270.5-219.7,489.9-490,489.9C229.7,990,9.2,769,10,499.5C10.8,228.5,230,9.7,500.2,10.1C771.4,10.5,990.3,229.9,990,500L990,500z M75.1,500C75.3,734.4,265.8,924.8,500,924.5c234.6-0.2,424.8-190.4,424.6-424.8C924.4,265.2,734.1,75,499.8,75.1C265.5,75.2,75,265.8,75.1,500L75.1,500z" fill="#56ABE4"/><path d="M537.6,382.5c8.4,1.8,18.2,2.7,27.2,6c20.2,7.5,30.2,26,28.6,49.3c-1.1,16.3-5.6,31.7-11.5,46.8c-22.8,58.7-45.7,117.3-68.3,176c-2.8,7.2-4.8,14.7-6.1,22.3c-2,11.6,5.8,17.6,16.9,13.2c11.9-4.7,20.7-13.6,29.6-22.3c13.2-13,25.8-26.5,38.8-39.6c6-5.9,8.8-6.4,13.1-3.4c5,3.4,7.3,9.6,4,15.6c-4.8,8.8-10,17.6-16.6,25.1c-32,36.4-69.7,64.9-115,82.8c-15.2,6-31.1,9.7-47.5,10.6c-18.1,1-31.9-6.8-42-21.3c-13.2-18.8-17.1-39.8-11.4-61.9c3.9-14.9,8.1-30,14.8-43.7c23.4-47.9,42.3-97.6,63.2-146.5c4.3-10.2,8.8-20.4,12.7-30.7c1.6-4.1,2.7-8.7,2.6-13.1c-0.1-7.3-5.5-12-12.4-10.1c-5.9,1.6-12.6,4.2-16.7,8.5c-9.8,10.3-18.5,21.6-27.2,32.9c-6.8,8.9-12.9,18.5-19.4,27.6c-1.4,2-3.2,3.9-5.1,5.6c-3.1,2.8-6.5,5-10.9,2.6c-4.4-2.5-7.9-6.2-6.5-11.4c2.1-7.7,4.7-15.4,8.2-22.5c25.5-50.9,68.5-79.1,122-93.1C513.6,384.9,525,384.3,537.6,382.5L537.6,382.5z" fill="#56ABE4"/><path d="M513.6,300.1c1.1-29.9,22.8-56.3,53.7-63.5c19.5-4.6,38.2-2.4,54.7,9.7c20.8,15.3,26.7,45.8,14.2,70.6c-13.6,27.1-44.1,40-71.6,37c-20.4-2.2-36.7-11.1-45.1-30.6C516.6,316,515.6,307.8,513.6,300.1L513.6,300.1z" fill="#56ABE4"/></g>
</svg>